# xmcd CD database file
#
# Track frame offsets:
#	150
#	20620
#	42875
#	63322
#
# Disc length: 1138 seconds
#
# Revision: 13
# Processed by: cddbd v1.5.2PL0 Copyright (c) Steve Scherf et al.
# Submitted via: CDex 1.70beta2
#
DISCID=2c047004
DTITLE=BoA - 七色の明日～Brand New Beat～ - Your Color
DYEAR=2006
DGENRE=JPop
TTITLE0=七色の明日～brand new beat～
TTITLE1=Your Color
TTITLE2=七色の明日～brand new beat～ (TV MIX)
TTITLE3=Your Color (TV MIX)
EXTD=YEAR: 2006
EXTT0=
EXTT1=
EXTT2=
EXTT3=
PLAYORDER=
